<svg id="SvgjsSvg1006" width="1067" height="216.5" xmlns="http://www.w3.org/2000/svg" version="1.1" xmlns:xlink="http://www.w3.org/1999/xlink" xmlns:svgjs="http://svgjs.com/svgjs"><defs id="SvgjsDefs1007"><marker id="SvgjsMarker1058" markerWidth="16" markerHeight="12" refX="16" refY="6" viewBox="0 0 16 12" orient="auto" markerUnits="userSpaceOnUse" stroke-dasharray="0,0"><path id="SvgjsPath1059" d="M0,2 L14,6 L0,11 L0,2" fill="#323232" stroke="#323232" stroke-width="2"></path></marker><marker id="SvgjsMarker1062" markerWidth="16" markerHeight="12" refX="16" refY="6" viewBox="0 0 16 12" orient="auto" markerUnits="userSpaceOnUse" stroke-dasharray="0,0"><path id="SvgjsPath1063" d="M0,2 L14,6 L0,11 L0,2" fill="#323232" stroke="#323232" stroke-width="2"></path></marker><marker id="SvgjsMarker1066" markerWidth="16" markerHeight="12" refX="16" refY="6" viewBox="0 0 16 12" orient="auto" markerUnits="userSpaceOnUse" stroke-dasharray="0,0"><path id="SvgjsPath1067" d="M0,2 L14,6 L0,11 L0,2" fill="#323232" stroke="#323232" stroke-width="2"></path></marker><marker id="SvgjsMarker1070" markerWidth="16" markerHeight="12" refX="16" refY="6" viewBox="0 0 16 12" orient="auto" markerUnits="userSpaceOnUse" stroke-dasharray="0,0"><path id="SvgjsPath1071" d="M0,2 L14,6 L0,11 L0,2" fill="#323232" stroke="#323232" stroke-width="2"></path></marker><marker id="SvgjsMarker1074" markerWidth="16" markerHeight="12" refX="16" refY="6" viewBox="0 0 16 12" orient="auto" markerUnits="userSpaceOnUse" stroke-dasharray="0,0"><path id="SvgjsPath1075" d="M0,2 L14,6 L0,11 L0,2" fill="#323232" stroke="#323232" stroke-width="2"></path></marker><marker id="SvgjsMarker1078" markerWidth="16" markerHeight="12" refX="16" refY="6" viewBox="0 0 16 12" orient="auto" markerUnits="userSpaceOnUse" stroke-dasharray="0,0"><path id="SvgjsPath1079" d="M0,2 L14,6 L0,11 L0,2" fill="#323232" stroke="#323232" stroke-width="2"></path></marker><marker id="SvgjsMarker1082" markerWidth="16" markerHeight="12" refX="16" refY="6" viewBox="0 0 16 12" orient="auto" markerUnits="userSpaceOnUse" stroke-dasharray="0,0"><path id="SvgjsPath1083" d="M0,2 L14,6 L0,11 L0,2" fill="#323232" stroke="#323232" stroke-width="2"></path></marker><marker id="SvgjsMarker1086" markerWidth="16" markerHeight="12" refX="16" refY="6" viewBox="0 0 16 12" orient="auto" markerUnits="userSpaceOnUse" stroke-dasharray="0,0"><path id="SvgjsPath1087" d="M0,2 L14,6 L0,11 L0,2" fill="#323232" stroke="#323232" stroke-width="2"></path></marker><marker id="SvgjsMarker1090" markerWidth="16" markerHeight="12" refX="16" refY="6" viewBox="0 0 16 12" orient="auto" markerUnits="userSpaceOnUse" stroke-dasharray="0,0"><path id="SvgjsPath1091" d="M0,2 L14,6 L0,11 L0,2" fill="#323232" stroke="#323232" stroke-width="2"></path></marker></defs><g id="SvgjsG1008" transform="translate(25,143.5)"><path id="SvgjsPath1009" d="M 11.833333333333334 0L 64.16666666666667 0C 79.94444444444444 0 79.94444444444444 35.5 64.16666666666667 35.5L 11.833333333333334 35.5C -3.9444444444444446 35.5 -3.9444444444444446 0 11.833333333333334 0Z" stroke="rgba(50,50,50,1)" stroke-width="2" fill-opacity="1" fill="#ffffff"></path><g id="SvgjsG1010"><text id="SvgjsText1011" font-family="微软雅黑" text-anchor="middle" font-size="13px" width="56px" fill="#323232" font-weight="400" align="middle" anchor="middle" family="微软雅黑" size="13px" weight="400" font-style="" opacity="1" y="7.8" transform="rotate(0)"><tspan id="SvgjsTspan1012" dy="16" x="38"><tspan id="SvgjsTspan1013" style="text-decoration:;">开始</tspan></tspan></text></g></g><g id="SvgjsG1014" transform="translate(144,139.5)"><path id="SvgjsPath1015" d="M 0 0L 103 0L 103 43.5L 0 43.5Z" stroke="rgba(50,50,50,1)" stroke-width="2" fill-opacity="1" fill="#ffffff"></path><g id="SvgjsG1016"><text id="SvgjsText1017" font-family="微软雅黑" text-anchor="middle" font-size="13px" width="83px" fill="#323232" font-weight="400" align="middle" anchor="middle" family="微软雅黑" size="13px" weight="400" font-style="" opacity="1" y="11.8" transform="rotate(0)"><tspan id="SvgjsTspan1018" dy="16" x="51.5"><tspan id="SvgjsTspan1019" style="text-decoration:;">进入搜索页</tspan></tspan></text></g></g><g id="SvgjsG1020" transform="translate(295,139.5)"><path id="SvgjsPath1021" d="M 0 0L 133 0L 133 43.5L 0 43.5Z" stroke="rgba(50,50,50,1)" stroke-width="2" fill-opacity="1" fill="#ffffff"></path><g id="SvgjsG1022"><text id="SvgjsText1023" font-family="微软雅黑" text-anchor="middle" font-size="13px" width="113px" fill="#323232" font-weight="400" align="middle" anchor="middle" family="微软雅黑" size="13px" weight="400" font-style="" opacity="1" y="11.8" transform="rotate(0)"><tspan id="SvgjsTspan1024" dy="16" x="66.5"><tspan id="SvgjsTspan1025" style="text-decoration:;">输入物品名称</tspan></tspan></text></g></g><g id="SvgjsG1026" transform="translate(474,139.5)"><path id="SvgjsPath1027" d="M 0 0L 108 0L 108 43.5L 0 43.5Z" stroke="rgba(50,50,50,1)" stroke-width="2" fill-opacity="1" fill="#ffffff"></path><g id="SvgjsG1028"><text id="SvgjsText1029" font-family="微软雅黑" text-anchor="middle" font-size="13px" width="88px" fill="#323232" font-weight="400" align="middle" anchor="middle" family="微软雅黑" size="13px" weight="400" font-style="" opacity="1" y="11.8" transform="rotate(0)"><tspan id="SvgjsTspan1030" dy="16" x="54"><tspan id="SvgjsTspan1031" style="text-decoration:;">搜索</tspan></tspan></text></g></g><g id="SvgjsG1032" transform="translate(627,130.5)"><path id="SvgjsPath1033" d="M 0 30.75L 66.5 0L 133 30.75L 66.5 61.5L 0 30.75Z" stroke="rgba(50,50,50,1)" stroke-width="2" fill-opacity="1" fill="#ffffff"></path><g id="SvgjsG1034"><text id="SvgjsText1035" font-family="微软雅黑" text-anchor="middle" font-size="13px" width="113px" fill="#323232" font-weight="400" align="middle" anchor="middle" family="微软雅黑" size="13px" weight="400" font-style="" opacity="1" y="20.8" transform="rotate(0)"><tspan id="SvgjsTspan1036" dy="16" x="66.5"><tspan id="SvgjsTspan1037" style="text-decoration:;">搜索成功？</tspan></tspan></text></g></g><g id="SvgjsG1038" transform="translate(628,25)"><path id="SvgjsPath1039" d="M 0 29.5L 65.5 0L 131 29.5L 65.5 59L 0 29.5Z" stroke="rgba(50,50,50,1)" stroke-width="2" fill-opacity="1" fill="#ffffff"></path><g id="SvgjsG1040"><text id="SvgjsText1041" font-family="微软雅黑" text-anchor="middle" font-size="13px" width="111px" fill="#323232" font-weight="400" align="middle" anchor="middle" family="微软雅黑" size="13px" weight="400" font-style="" opacity="1" y="19.55" transform="rotate(0)"><tspan id="SvgjsTspan1042" dy="16" x="65.5"><tspan id="SvgjsTspan1043" style="text-decoration:;">重新搜索？</tspan></tspan></text></g></g><g id="SvgjsG1044" transform="translate(806,139.5)"><path id="SvgjsPath1045" d="M 0 0L 121 0L 121 43.5L 0 43.5Z" stroke="rgba(50,50,50,1)" stroke-width="2" fill-opacity="1" fill="#ffffff"></path><g id="SvgjsG1046"><text id="SvgjsText1047" font-family="微软雅黑" text-anchor="middle" font-size="13px" width="101px" fill="#323232" font-weight="400" align="middle" anchor="middle" family="微软雅黑" size="13px" weight="400" font-style="" opacity="1" y="11.8" transform="rotate(0)"><tspan id="SvgjsTspan1048" dy="16" x="60.5"><tspan id="SvgjsTspan1049" style="text-decoration:;">得到搜索结果</tspan></tspan></text></g></g><g id="SvgjsG1050" transform="translate(969,143.5)"><path id="SvgjsPath1051" d="M 11.833333333333334 0L 61.166666666666664 0C 76.94444444444444 0 76.94444444444444 35.5 61.166666666666664 35.5L 11.833333333333334 35.5C -3.9444444444444446 35.5 -3.9444444444444446 0 11.833333333333334 0Z" stroke="rgba(50,50,50,1)" stroke-width="2" fill-opacity="1" fill="#ffffff"></path><g id="SvgjsG1052"><text id="SvgjsText1053" font-family="微软雅黑" text-anchor="middle" font-size="13px" width="53px" fill="#323232" font-weight="400" align="middle" anchor="middle" family="微软雅黑" size="13px" weight="400" font-style="" opacity="1" y="7.8" transform="rotate(0)"><tspan id="SvgjsTspan1054" dy="16" x="36.5"><tspan id="SvgjsTspan1055" style="text-decoration:;">结束</tspan></tspan></text></g></g><g id="SvgjsG1056"><path id="SvgjsPath1057" d="M101 161.25L122.5 161.25L122.5 161.25L144 161.25" stroke="#323232" stroke-width="2" fill="none" marker-end="url(#SvgjsMarker1058)"></path></g><g id="SvgjsG1060"><path id="SvgjsPath1061" d="M247 161.25L271 161.25L271 161.25L295 161.25" stroke="#323232" stroke-width="2" fill="none" marker-end="url(#SvgjsMarker1062)"></path></g><g id="SvgjsG1064"><path id="SvgjsPath1065" d="M428 161.25L451 161.25L451 161.25L474 161.25" stroke="#323232" stroke-width="2" fill="none" marker-end="url(#SvgjsMarker1066)"></path></g><g id="SvgjsG1068"><path id="SvgjsPath1069" d="M582 161.25L604.5 161.25L604.5 161.25L627 161.25" stroke="#323232" stroke-width="2" fill="none" marker-end="url(#SvgjsMarker1070)"></path></g><g id="SvgjsG1072"><path id="SvgjsPath1073" d="M760 161.25L783 161.25L783 161.25L806 161.25" stroke="#323232" stroke-width="2" fill="none" marker-end="url(#SvgjsMarker1074)"></path></g><g id="SvgjsG1076"><path id="SvgjsPath1077" d="M927 161.25L948 161.25L948 161.25L969 161.25" stroke="#323232" stroke-width="2" fill="none" marker-end="url(#SvgjsMarker1078)"></path></g><g id="SvgjsG1080"><path id="SvgjsPath1081" d="M693.5 130.5L693.5 107.25L693.5 107.25L693.5 84" stroke="#323232" stroke-width="2" fill="none" marker-end="url(#SvgjsMarker1082)"></path></g><g id="SvgjsG1084"><path id="SvgjsPath1085" d="M628 54.5L528 54.5L528 139.5" stroke="#323232" stroke-width="2" fill="none" marker-end="url(#SvgjsMarker1086)"></path></g><g id="SvgjsG1088"><path id="SvgjsPath1089" d="M759 54.5L1005.5 54.5L1005.5 143.5" stroke="#323232" stroke-width="2" fill="none" marker-end="url(#SvgjsMarker1090)"></path></g><g id="SvgjsG1092" transform="translate(557,28)"><path id="SvgjsPath1093" d="M 0 0L 44 0L 44 27L 0 27Z" stroke="none" fill="none"></path><g id="SvgjsG1094"><text id="SvgjsText1095" font-family="微软雅黑" text-anchor="middle" font-size="13px" width="44px" fill="#323232" font-weight="400" align="middle" anchor="middle" family="微软雅黑" size="13px" weight="400" font-style="" opacity="1" y="3.55" transform="rotate(0)"><tspan id="SvgjsTspan1096" dy="16" x="22"><tspan id="SvgjsTspan1097" style="text-decoration:;">Y</tspan></tspan></text></g></g><g id="SvgjsG1098" transform="translate(803,28)"><path id="SvgjsPath1099" d="M 0 0L 44 0L 44 27L 0 27Z" stroke="none" fill="none"></path><g id="SvgjsG1100"><text id="SvgjsText1101" font-family="微软雅黑" text-anchor="middle" font-size="13px" width="44px" fill="#323232" font-weight="400" align="middle" anchor="middle" family="微软雅黑" size="13px" weight="400" font-style="" opacity="1" y="3.55" transform="rotate(0)"><tspan id="SvgjsTspan1102" dy="16" x="22"><tspan id="SvgjsTspan1103" style="text-decoration:;">N</tspan></tspan></text></g></g><g id="SvgjsG1104" transform="translate(694,97)"><path id="SvgjsPath1105" d="M 0 0L 22 0L 22 29L 0 29Z" stroke="none" fill="none"></path><g id="SvgjsG1106"><text id="SvgjsText1107" font-family="微软雅黑" text-anchor="middle" font-size="13px" width="22px" fill="#323232" font-weight="400" align="middle" anchor="middle" family="微软雅黑" size="13px" weight="400" font-style="" opacity="1" y="4.55" transform="rotate(0)"><tspan id="SvgjsTspan1108" dy="16" x="11"><tspan id="SvgjsTspan1109" style="text-decoration:;">N</tspan></tspan></text></g></g><g id="SvgjsG1110" transform="translate(763,139.5)"><path id="SvgjsPath1111" d="M 0 0L 24 0L 24 22.5L 0 22.5Z" stroke="none" fill="none"></path><g id="SvgjsG1112"><text id="SvgjsText1113" font-family="微软雅黑" text-anchor="middle" font-size="13px" width="24px" fill="#323232" font-weight="400" align="middle" anchor="middle" family="微软雅黑" size="13px" weight="400" font-style="" opacity="1" y="1.3" transform="rotate(0)"><tspan id="SvgjsTspan1114" dy="16" x="12"><tspan id="SvgjsTspan1115" style="text-decoration:;">Y</tspan></tspan></text></g></g></svg>