<svg id="SvgjsSvg1297" width="1345" height="578" xmlns="http://www.w3.org/2000/svg" version="1.1" xmlns:xlink="http://www.w3.org/1999/xlink" xmlns:svgjs="http://svgjs.com/svgjs"><defs id="SvgjsDefs1298"><marker id="SvgjsMarker1309" markerWidth="16" markerHeight="12" refX="16" refY="6" viewBox="0 0 16 12" orient="auto" markerUnits="userSpaceOnUse" stroke-dasharray="0,0"><path id="SvgjsPath1310" d="M0,2 L14,6 L0,11 L0,2" fill="#323232" stroke="#323232" stroke-width="2"></path></marker><marker id="SvgjsMarker1313" markerWidth="16" markerHeight="12" refX="16" refY="6" viewBox="0 0 16 12" orient="auto" markerUnits="userSpaceOnUse" stroke-dasharray="0,0"><path id="SvgjsPath1314" d="M0,2 L14,6 L0,11 L0,2" fill="#323232" stroke="#323232" stroke-width="2"></path></marker><marker id="SvgjsMarker1317" markerWidth="16" markerHeight="12" refX="16" refY="6" viewBox="0 0 16 12" orient="auto" markerUnits="userSpaceOnUse" stroke-dasharray="0,0"><path id="SvgjsPath1318" d="M0,2 L14,6 L0,11 L0,2" fill="#323232" stroke="#323232" stroke-width="2"></path></marker><marker id="SvgjsMarker1339" markerWidth="16" markerHeight="12" refX="16" refY="6" viewBox="0 0 16 12" orient="auto" markerUnits="userSpaceOnUse" stroke-dasharray="0,0"><path id="SvgjsPath1340" d="M0,2 L14,6 L0,11 L0,2" fill="#323232" stroke="#323232" stroke-width="2"></path></marker><marker id="SvgjsMarker1349" markerWidth="16" markerHeight="12" refX="16" refY="6" viewBox="0 0 16 12" orient="auto" markerUnits="userSpaceOnUse" stroke-dasharray="0,0"><path id="SvgjsPath1350" d="M0,2 L14,6 L0,11 L0,2" fill="#323232" stroke="#323232" stroke-width="2"></path></marker><marker id="SvgjsMarker1359" markerWidth="16" markerHeight="12" refX="16" refY="6" viewBox="0 0 16 12" orient="auto" markerUnits="userSpaceOnUse" stroke-dasharray="0,0"><path id="SvgjsPath1360" d="M0,2 L14,6 L0,11 L0,2" fill="#323232" stroke="#323232" stroke-width="2"></path></marker><marker id="SvgjsMarker1378" markerWidth="16" markerHeight="12" refX="16" refY="6" viewBox="0 0 16 12" orient="auto" markerUnits="userSpaceOnUse" stroke-dasharray="0,0"><path id="SvgjsPath1379" d="M0,2 L14,6 L0,11 L0,2" fill="#323232" stroke="#323232" stroke-width="2"></path></marker><marker id="SvgjsMarker1382" markerWidth="16" markerHeight="12" refX="16" refY="6" viewBox="0 0 16 12" orient="auto" markerUnits="userSpaceOnUse" stroke-dasharray="0,0"><path id="SvgjsPath1383" d="M0,2 L14,6 L0,11 L0,2" fill="#323232" stroke="#323232" stroke-width="2"></path></marker><marker id="SvgjsMarker1400" markerWidth="16" markerHeight="12" refX="16" refY="6" viewBox="0 0 16 12" orient="auto" markerUnits="userSpaceOnUse" stroke-dasharray="0,0"><path id="SvgjsPath1401" d="M0,2 L14,6 L0,11 L0,2" fill="#323232" stroke="#323232" stroke-width="2"></path></marker><marker id="SvgjsMarker1404" markerWidth="16" markerHeight="12" refX="16" refY="6" viewBox="0 0 16 12" orient="auto" markerUnits="userSpaceOnUse" stroke-dasharray="0,0"><path id="SvgjsPath1405" d="M0,2 L14,6 L0,11 L0,2" fill="#323232" stroke="#323232" stroke-width="2"></path></marker><marker id="SvgjsMarker1414" markerWidth="16" markerHeight="12" refX="16" refY="6" viewBox="0 0 16 12" orient="auto" markerUnits="userSpaceOnUse" stroke-dasharray="0,0"><path id="SvgjsPath1415" d="M0,2 L14,6 L0,11 L0,2" fill="#323232" stroke="#323232" stroke-width="2"></path></marker><marker id="SvgjsMarker1418" markerWidth="16" markerHeight="12" refX="16" refY="6" viewBox="0 0 16 12" orient="auto" markerUnits="userSpaceOnUse" stroke-dasharray="0,0"><path id="SvgjsPath1419" d="M0,2 L14,6 L0,11 L0,2" fill="#323232" stroke="#323232" stroke-width="2"></path></marker><marker id="SvgjsMarker1422" markerWidth="16" markerHeight="12" refX="16" refY="6" viewBox="0 0 16 12" orient="auto" markerUnits="userSpaceOnUse" stroke-dasharray="0,0"><path id="SvgjsPath1423" d="M0,2 L14,6 L0,11 L0,2" fill="#323232" stroke="#323232" stroke-width="2"></path></marker><marker id="SvgjsMarker1438" markerWidth="16" markerHeight="12" refX="16" refY="6" viewBox="0 0 16 12" orient="auto" markerUnits="userSpaceOnUse" stroke-dasharray="0,0"><path id="SvgjsPath1439" d="M0,2 L14,6 L0,11 L0,2" fill="#323232" stroke="#323232" stroke-width="2"></path></marker><marker id="SvgjsMarker1464" markerWidth="16" markerHeight="12" refX="16" refY="6" viewBox="0 0 16 12" orient="auto" markerUnits="userSpaceOnUse" stroke-dasharray="0,0"><path id="SvgjsPath1465" d="M0,2 L14,6 L0,11 L0,2" fill="#323232" stroke="#323232" stroke-width="2"></path></marker><marker id="SvgjsMarker1474" markerWidth="16" markerHeight="12" refX="16" refY="6" viewBox="0 0 16 12" orient="auto" markerUnits="userSpaceOnUse" stroke-dasharray="0,0"><path id="SvgjsPath1475" d="M0,2 L14,6 L0,11 L0,2" fill="#323232" stroke="#323232" stroke-width="2"></path></marker><marker id="SvgjsMarker1486" markerWidth="16" markerHeight="12" refX="16" refY="6" viewBox="0 0 16 12" orient="auto" markerUnits="userSpaceOnUse" stroke-dasharray="0,0"><path id="SvgjsPath1487" d="M0,2 L14,6 L0,11 L0,2" fill="#323232" stroke="#323232" stroke-width="2"></path></marker><marker id="SvgjsMarker1490" markerWidth="16" markerHeight="12" refX="16" refY="6" viewBox="0 0 16 12" orient="auto" markerUnits="userSpaceOnUse" stroke-dasharray="0,0"><path id="SvgjsPath1491" d="M0,2 L14,6 L0,11 L0,2" fill="#323232" stroke="#323232" stroke-width="2"></path></marker><marker id="SvgjsMarker1500" markerWidth="16" markerHeight="12" refX="16" refY="6" viewBox="0 0 16 12" orient="auto" markerUnits="userSpaceOnUse" stroke-dasharray="0,0"><path id="SvgjsPath1501" d="M0,2 L14,6 L0,11 L0,2" fill="#323232" stroke="#323232" stroke-width="2"></path></marker><marker id="SvgjsMarker1504" markerWidth="16" markerHeight="12" refX="16" refY="6" viewBox="0 0 16 12" orient="auto" markerUnits="userSpaceOnUse" stroke-dasharray="0,0"><path id="SvgjsPath1505" d="M0,2 L14,6 L0,11 L0,2" fill="#323232" stroke="#323232" stroke-width="2"></path></marker><marker id="SvgjsMarker1508" markerWidth="16" markerHeight="12" refX="16" refY="6" viewBox="0 0 16 12" orient="auto" markerUnits="userSpaceOnUse" stroke-dasharray="0,0"><path id="SvgjsPath1509" d="M0,2 L14,6 L0,11 L0,2" fill="#323232" stroke="#323232" stroke-width="2"></path></marker><marker id="SvgjsMarker1512" markerWidth="16" markerHeight="12" refX="16" refY="6" viewBox="0 0 16 12" orient="auto" markerUnits="userSpaceOnUse" stroke-dasharray="0,0"><path id="SvgjsPath1513" d="M0,2 L14,6 L0,11 L0,2" fill="#323232" stroke="#323232" stroke-width="2"></path></marker><marker id="SvgjsMarker1516" markerWidth="16" markerHeight="12" refX="16" refY="6" viewBox="0 0 16 12" orient="auto" markerUnits="userSpaceOnUse" stroke-dasharray="0,0"><path id="SvgjsPath1517" d="M0,2 L14,6 L0,11 L0,2" fill="#323232" stroke="#323232" stroke-width="2"></path></marker><marker id="SvgjsMarker1520" markerWidth="16" markerHeight="12" refX="16" refY="6" viewBox="0 0 16 12" orient="auto" markerUnits="userSpaceOnUse" stroke-dasharray="0,0"><path id="SvgjsPath1521" d="M0,2 L14,6 L0,11 L0,2" fill="#323232" stroke="#323232" stroke-width="2"></path></marker><marker id="SvgjsMarker1524" markerWidth="16" markerHeight="12" refX="16" refY="6" viewBox="0 0 16 12" orient="auto" markerUnits="userSpaceOnUse" stroke-dasharray="0,0"><path id="SvgjsPath1525" d="M0,2 L14,6 L0,11 L0,2" fill="#323232" stroke="#323232" stroke-width="2"></path></marker></defs><g id="SvgjsG1299" transform="translate(25,308)"><path id="SvgjsPath1300" d="M 16.666666666666668 0L 83.33333333333333 0C 105.55555555555556 0 105.55555555555556 50 83.33333333333333 50L 16.666666666666668 50C -5.555555555555556 50 -5.555555555555556 0 16.666666666666668 0Z" stroke="rgba(50,50,50,1)" stroke-width="2" fill-opacity="1" fill="#ffffff"></path><g id="SvgjsG1301"><text id="SvgjsText1302" font-family="微软雅黑" text-anchor="middle" font-size="13px" width="80px" fill="#323232" font-weight="400" align="middle" anchor="middle" family="微软雅黑" size="13px" weight="400" font-style="" opacity="1" y="15.05" transform="rotate(0)"><tspan id="SvgjsTspan1303" dy="16" x="50"><tspan id="SvgjsTspan1304" style="text-decoration:;">开始</tspan></tspan></text></g></g><g id="SvgjsG1305"><path id="SvgjsPath1306" d="M170 181.5L170 350.75L170 350.75L170 520" stroke="#323232" stroke-width="2" fill="none"></path></g><g id="SvgjsG1307"><path id="SvgjsPath1308" d="M169 180.5L191.5 180.5L191.5 180.5L214 180.5" stroke="#323232" stroke-width="2" fill="none" marker-end="url(#SvgjsMarker1309)"></path></g><g id="SvgjsG1311"><path id="SvgjsPath1312" d="M169 393.5L194 393.5L194 393.5L219 393.5" stroke="#323232" stroke-width="2" fill="none" marker-end="url(#SvgjsMarker1313)"></path></g><g id="SvgjsG1315"><path id="SvgjsPath1316" d="M170 518.5L194.5 518.5L194.5 518.5L219 518.5" stroke="#323232" stroke-width="2" fill="none" marker-end="url(#SvgjsMarker1317)"></path></g><g id="SvgjsG1319" transform="translate(216,161)"><path id="SvgjsPath1320" d="M 0 0L 169 0L 169 40L 0 40Z" stroke="rgba(50,50,50,1)" stroke-width="2" fill-opacity="1" fill="#ffffff"></path><g id="SvgjsG1321"><text id="SvgjsText1322" font-family="微软雅黑" text-anchor="middle" font-size="13px" width="149px" fill="#323232" font-weight="400" align="middle" anchor="middle" family="微软雅黑" size="13px" weight="400" font-style="" opacity="1" y="10.05" transform="rotate(0)"><tspan id="SvgjsTspan1323" dy="16" x="84.5"><tspan id="SvgjsTspan1324" style="text-decoration:;">已知收纳盒名称</tspan></tspan></text></g></g><g id="SvgjsG1325" transform="translate(220,373)"><path id="SvgjsPath1326" d="M 0 0L 169 0L 169 40L 0 40Z" stroke="rgba(50,50,50,1)" stroke-width="2" fill-opacity="1" fill="#ffffff"></path><g id="SvgjsG1327"><text id="SvgjsText1328" font-family="微软雅黑" text-anchor="middle" font-size="13px" width="149px" fill="#323232" font-weight="400" align="middle" anchor="middle" family="微软雅黑" size="13px" weight="400" font-style="" opacity="1" y="10.05" transform="rotate(0)"><tspan id="SvgjsTspan1329" dy="16" x="84.5"><tspan id="SvgjsTspan1330" style="text-decoration:;">已知收纳盒二维码</tspan></tspan></text></g></g><g id="SvgjsG1331" transform="translate(220,498)"><path id="SvgjsPath1332" d="M 0 0L 169 0L 169 40L 0 40Z" stroke="rgba(50,50,50,1)" stroke-width="2" fill-opacity="1" fill="#ffffff"></path><g id="SvgjsG1333"><text id="SvgjsText1334" font-family="微软雅黑" text-anchor="middle" font-size="13px" width="149px" fill="#323232" font-weight="400" align="middle" anchor="middle" family="微软雅黑" size="13px" weight="400" font-style="" opacity="1" y="10.05" transform="rotate(0)"><tspan id="SvgjsTspan1335" dy="16" x="84.5"><tspan id="SvgjsTspan1336" style="text-decoration:;">已知收纳盒位置</tspan></tspan></text></g></g><g id="SvgjsG1337"><path id="SvgjsPath1338" d="M385 181L408 181L408 181L431 181" stroke="#323232" stroke-width="2" fill="none" marker-end="url(#SvgjsMarker1339)"></path></g><g id="SvgjsG1341" transform="translate(434,161)"><path id="SvgjsPath1342" d="M 0 0L 125 0L 125 40L 0 40Z" stroke="rgba(50,50,50,1)" stroke-width="2" fill-opacity="1" fill="#ffffff"></path><g id="SvgjsG1343"><text id="SvgjsText1344" font-family="微软雅黑" text-anchor="middle" font-size="13px" width="105px" fill="#323232" font-weight="400" align="middle" anchor="middle" family="微软雅黑" size="13px" weight="400" font-style="" opacity="1" y="10.05" transform="rotate(0)"><tspan id="SvgjsTspan1345" dy="16" x="62.5"><tspan id="SvgjsTspan1346" style="text-decoration:;">进入搜索页</tspan></tspan></text></g></g><g id="SvgjsG1347"><path id="SvgjsPath1348" d="M559 181L586.5 181L586.5 181L614 181" stroke="#323232" stroke-width="2" fill="none" marker-end="url(#SvgjsMarker1349)"></path></g><g id="SvgjsG1351" transform="translate(620,161)"><path id="SvgjsPath1352" d="M 0 0L 125 0L 125 40L 0 40Z" stroke="rgba(50,50,50,1)" stroke-width="2" fill-opacity="1" fill="#ffffff"></path><g id="SvgjsG1353"><text id="SvgjsText1354" font-family="微软雅黑" text-anchor="middle" font-size="13px" width="105px" fill="#323232" font-weight="400" align="middle" anchor="middle" family="微软雅黑" size="13px" weight="400" font-style="" opacity="1" y="10.05" transform="rotate(0)"><tspan id="SvgjsTspan1355" dy="16" x="62.5"><tspan id="SvgjsTspan1356" style="text-decoration:;">输入收纳盒名称</tspan></tspan></text></g></g><g id="SvgjsG1357"><path id="SvgjsPath1358" d="M745 181L765 181L765 181L785 181" stroke="#323232" stroke-width="2" fill="none" marker-end="url(#SvgjsMarker1359)"></path></g><g id="SvgjsG1361" transform="translate(790,161)"><path id="SvgjsPath1362" d="M 0 0L 68 0L 68 40L 0 40Z" stroke="rgba(50,50,50,1)" stroke-width="2" fill-opacity="1" fill="#ffffff"></path><g id="SvgjsG1363"><text id="SvgjsText1364" font-family="微软雅黑" text-anchor="middle" font-size="13px" width="48px" fill="#323232" font-weight="400" align="middle" anchor="middle" family="微软雅黑" size="13px" weight="400" font-style="" opacity="1" y="10.05" transform="rotate(0)"><tspan id="SvgjsTspan1365" dy="16" x="34"><tspan id="SvgjsTspan1366" style="text-decoration:;">搜索</tspan></tspan></text></g></g><g id="SvgjsG1367" transform="translate(902,146)"><path id="SvgjsPath1368" d="M 0 35L 45 0L 90 35L 45 70L 0 35Z" stroke="rgba(50,50,50,1)" stroke-width="2" fill-opacity="1" fill="#ffffff"></path><g id="SvgjsG1369"><text id="SvgjsText1370" font-family="微软雅黑" text-anchor="middle" font-size="13px" width="70px" fill="#323232" font-weight="400" align="middle" anchor="middle" family="微软雅黑" size="13px" weight="400" font-style="" opacity="1" y="17.05" transform="rotate(0)"><tspan id="SvgjsTspan1371" dy="16" x="45"><tspan id="SvgjsTspan1372" style="text-decoration:;">搜索</tspan><tspan id="SvgjsTspan1373" style="text-decoration:;font-size: inherit;">成</tspan></tspan><tspan id="SvgjsTspan1374" dy="16" x="45"><tspan id="SvgjsTspan1375" style="text-decoration:;font-size: inherit;">功？</tspan></tspan></text></g></g><g id="SvgjsG1376"><path id="SvgjsPath1377" d="M858 181L880 181L880 181L902 181" stroke="#323232" stroke-width="2" fill="none" marker-end="url(#SvgjsMarker1378)"></path></g><g id="SvgjsG1380"><path id="SvgjsPath1381" d="M992 181L1013.5 181L1013.5 181L1035 181" stroke="#323232" stroke-width="2" fill="none" marker-end="url(#SvgjsMarker1382)"></path></g><g id="SvgjsG1384" transform="translate(1035,161)"><path id="SvgjsPath1385" d="M 0 0L 125 0L 125 40L 0 40Z" stroke="rgba(50,50,50,1)" stroke-width="2" fill-opacity="1" fill="#ffffff"></path><g id="SvgjsG1386"><text id="SvgjsText1387" font-family="微软雅黑" text-anchor="middle" font-size="13px" width="105px" fill="#323232" font-weight="400" align="middle" anchor="middle" family="微软雅黑" size="13px" weight="400" font-style="" opacity="1" y="10.05" transform="rotate(0)"><tspan id="SvgjsTspan1388" dy="16" x="62.5"><tspan id="SvgjsTspan1389" style="text-decoration:;">获知收纳盒详情</tspan></tspan></text></g></g><g id="SvgjsG1390" transform="translate(902,25)"><path id="SvgjsPath1391" d="M 0 35L 45 0L 90 35L 45 70L 0 35Z" stroke="rgba(50,50,50,1)" stroke-width="2" fill-opacity="1" fill="#ffffff"></path><g id="SvgjsG1392"><text id="SvgjsText1393" font-family="微软雅黑" text-anchor="middle" font-size="13px" width="70px" fill="#323232" font-weight="400" align="middle" anchor="middle" family="微软雅黑" size="13px" weight="400" font-style="" opacity="1" y="17.05" transform="rotate(0)"><tspan id="SvgjsTspan1394" dy="16" x="45"><tspan id="SvgjsTspan1395" style="text-decoration:;">重新搜</tspan></tspan><tspan id="SvgjsTspan1396" dy="16" x="45"><tspan id="SvgjsTspan1397" style="text-decoration:;">索？</tspan></tspan></text></g></g><g id="SvgjsG1398"><path id="SvgjsPath1399" d="M947 146L947 120.5L947 120.5L947 95" stroke="#323232" stroke-width="2" fill="none" marker-end="url(#SvgjsMarker1400)"></path></g><g id="SvgjsG1402"><path id="SvgjsPath1403" d="M1160 181L1190 181L1190 181L1220 181" stroke="#323232" stroke-width="2" fill="none" marker-end="url(#SvgjsMarker1404)"></path></g><g id="SvgjsG1406" transform="translate(1220,156)"><path id="SvgjsPath1407" d="M 16.666666666666668 0L 83.33333333333333 0C 105.55555555555556 0 105.55555555555556 50 83.33333333333333 50L 16.666666666666668 50C -5.555555555555556 50 -5.555555555555556 0 16.666666666666668 0Z" stroke="rgba(50,50,50,1)" stroke-width="2" fill-opacity="1" fill="#ffffff"></path><g id="SvgjsG1408"><text id="SvgjsText1409" font-family="微软雅黑" text-anchor="middle" font-size="13px" width="80px" fill="#323232" font-weight="400" align="middle" anchor="middle" family="微软雅黑" size="13px" weight="400" font-style="" opacity="1" y="15.05" transform="rotate(0)"><tspan id="SvgjsTspan1410" dy="16" x="50"><tspan id="SvgjsTspan1411" style="text-decoration:;">结束</tspan></tspan></text></g></g><g id="SvgjsG1412"><path id="SvgjsPath1413" d="M992 60L1270 60L1270 156" stroke="#323232" stroke-width="2" fill="none" marker-end="url(#SvgjsMarker1414)"></path></g><g id="SvgjsG1416"><path id="SvgjsPath1417" d="M902 60L682.5 60L682.5 161" stroke="#323232" stroke-width="2" fill="none" marker-end="url(#SvgjsMarker1418)"></path></g><g id="SvgjsG1420"><path id="SvgjsPath1421" d="M389 393L411 393L411 393L433 393" stroke="#323232" stroke-width="2" fill="none" marker-end="url(#SvgjsMarker1422)"></path></g><g id="SvgjsG1424" transform="translate(438,373)"><path id="SvgjsPath1425" d="M 0 0L 125 0L 125 40L 0 40Z" stroke="rgba(50,50,50,1)" stroke-width="2" fill-opacity="1" fill="#ffffff"></path><g id="SvgjsG1426"><text id="SvgjsText1427" font-family="微软雅黑" text-anchor="middle" font-size="13px" width="105px" fill="#323232" font-weight="400" align="middle" anchor="middle" family="微软雅黑" size="13px" weight="400" font-style="" opacity="1" y="10.05" transform="rotate(0)"><tspan id="SvgjsTspan1428" dy="16" x="62.5"><tspan id="SvgjsTspan1429" style="text-decoration:;">进入收纳页</tspan></tspan></text></g></g><g id="SvgjsG1430" transform="translate(624,373)"><path id="SvgjsPath1431" d="M 0 0L 140 0L 140 40L 0 40Z" stroke="rgba(50,50,50,1)" stroke-width="2" fill-opacity="1" fill="#ffffff"></path><g id="SvgjsG1432"><text id="SvgjsText1433" font-family="微软雅黑" text-anchor="middle" font-size="13px" width="120px" fill="#323232" font-weight="400" align="middle" anchor="middle" family="微软雅黑" size="13px" weight="400" font-style="" opacity="1" y="10.05" transform="rotate(0)"><tspan id="SvgjsTspan1434" dy="16" x="70"><tspan id="SvgjsTspan1435" style="text-decoration:;">扫描收纳盒二维码</tspan></tspan></text></g></g><g id="SvgjsG1436"><path id="SvgjsPath1437" d="M764 393L787.5 393L787.5 393L811 393" stroke="#323232" stroke-width="2" fill="none" marker-end="url(#SvgjsMarker1438)"></path></g><g id="SvgjsG1440" transform="translate(812,358)"><path id="SvgjsPath1441" d="M 0 35L 45 0L 90 35L 45 70L 0 35Z" stroke="rgba(50,50,50,1)" stroke-width="2" fill-opacity="1" fill="#ffffff"></path><g id="SvgjsG1442"><text id="SvgjsText1443" font-family="微软雅黑" text-anchor="middle" font-size="13px" width="70px" fill="#323232" font-weight="400" align="middle" anchor="middle" family="微软雅黑" size="13px" weight="400" font-style="" opacity="1" y="17.05" transform="rotate(0)"><tspan id="SvgjsTspan1444" dy="16" x="45"><tspan id="SvgjsTspan1445" style="text-decoration:;font-size: inherit;">扫描成</tspan></tspan><tspan id="SvgjsTspan1446" dy="16" x="45"><tspan id="SvgjsTspan1447" style="text-decoration:;font-size: inherit;">功？</tspan></tspan></text></g></g><g id="SvgjsG1448" transform="translate(812,246)"><path id="SvgjsPath1449" d="M 0 35L 45 0L 90 35L 45 70L 0 35Z" stroke="rgba(50,50,50,1)" stroke-width="2" fill-opacity="1" fill="#ffffff"></path><g id="SvgjsG1450"><text id="SvgjsText1451" font-family="微软雅黑" text-anchor="middle" font-size="13px" width="70px" fill="#323232" font-weight="400" align="middle" anchor="middle" family="微软雅黑" size="13px" weight="400" font-style="" opacity="1" y="17.05" transform="rotate(0)"><tspan id="SvgjsTspan1452" dy="16" x="45"><tspan id="SvgjsTspan1453" style="text-decoration:;font-size: inherit;">重新扫</tspan></tspan><tspan id="SvgjsTspan1454" dy="16" x="45"><tspan id="SvgjsTspan1455" style="text-decoration:;font-size: inherit;">描？</tspan></tspan></text></g></g><g id="SvgjsG1456" transform="translate(624,498)"><path id="SvgjsPath1457" d="M 0 0L 125 0L 125 40L 0 40Z" stroke="rgba(50,50,50,1)" stroke-width="2" fill-opacity="1" fill="#ffffff"></path><g id="SvgjsG1458"><text id="SvgjsText1459" font-family="微软雅黑" text-anchor="middle" font-size="13px" width="105px" fill="#323232" font-weight="400" align="middle" anchor="middle" family="微软雅黑" size="13px" weight="400" font-style="" opacity="1" y="10.05" transform="rotate(0)"><tspan id="SvgjsTspan1460" dy="16" x="62.5"><tspan id="SvgjsTspan1461" style="text-decoration:;">选择房间</tspan></tspan></text></g></g><g id="SvgjsG1462"><path id="SvgjsPath1463" d="M749 518L777 518L777 518L805 518" stroke="#323232" stroke-width="2" fill="none" marker-end="url(#SvgjsMarker1464)"></path></g><g id="SvgjsG1466" transform="translate(813,498)"><path id="SvgjsPath1467" d="M 0 0L 125 0L 125 40L 0 40Z" stroke="rgba(50,50,50,1)" stroke-width="2" fill-opacity="1" fill="#ffffff"></path><g id="SvgjsG1468"><text id="SvgjsText1469" font-family="微软雅黑" text-anchor="middle" font-size="13px" width="105px" fill="#323232" font-weight="400" align="middle" anchor="middle" family="微软雅黑" size="13px" weight="400" font-style="" opacity="1" y="10.05" transform="rotate(0)"><tspan id="SvgjsTspan1470" dy="16" x="62.5"><tspan id="SvgjsTspan1471" style="text-decoration:;">选择父级收纳盒</tspan></tspan></text></g></g><g id="SvgjsG1472"><path id="SvgjsPath1473" d="M938 518L995.25 518L995.25 518L1052.5 518" stroke="#323232" stroke-width="2" fill="none" marker-end="url(#SvgjsMarker1474)"></path></g><g id="SvgjsG1476" transform="translate(1052.5,483)"><path id="SvgjsPath1477" d="M 0 35L 45 0L 90 35L 45 70L 0 35Z" stroke="rgba(50,50,50,1)" stroke-width="2" fill-opacity="1" fill="#ffffff"></path><g id="SvgjsG1478"><text id="SvgjsText1479" font-family="微软雅黑" text-anchor="middle" font-size="13px" width="70px" fill="#323232" font-weight="400" align="middle" anchor="middle" family="微软雅黑" size="13px" weight="400" font-style="" opacity="1" y="17.05" transform="rotate(0)"><tspan id="SvgjsTspan1480" dy="16" x="45"><tspan id="SvgjsTspan1481" style="text-decoration:;font-size: inherit;">找到收纳</tspan></tspan><tspan id="SvgjsTspan1482" dy="16" x="45"><tspan id="SvgjsTspan1483" style="text-decoration:;font-size: inherit;">盒？</tspan></tspan></text></g></g><g id="SvgjsG1484"><path id="SvgjsPath1485" d="M812 281L694 281L694 373" stroke="#323232" stroke-width="2" fill="none" marker-end="url(#SvgjsMarker1486)"></path></g><g id="SvgjsG1488"><path id="SvgjsPath1489" d="M857 358L857 337L857 337L857 316" stroke="#323232" stroke-width="2" fill="none" marker-end="url(#SvgjsMarker1490)"></path></g><g id="SvgjsG1492" transform="translate(438,498)"><path id="SvgjsPath1493" d="M 0 0L 125 0L 125 40L 0 40Z" stroke="rgba(50,50,50,1)" stroke-width="2" fill-opacity="1" fill="#ffffff"></path><g id="SvgjsG1494"><text id="SvgjsText1495" font-family="微软雅黑" text-anchor="middle" font-size="13px" width="105px" fill="#323232" font-weight="400" align="middle" anchor="middle" family="微软雅黑" size="13px" weight="400" font-style="" opacity="1" y="10.05" transform="rotate(0)"><tspan id="SvgjsTspan1496" dy="16" x="62.5"><tspan id="SvgjsTspan1497" style="text-decoration:;">进入收纳页</tspan></tspan></text></g></g><g id="SvgjsG1498"><path id="SvgjsPath1499" d="M389 518L413.5 518L413.5 518L438 518" stroke="#323232" stroke-width="2" fill="none" marker-end="url(#SvgjsMarker1500)"></path></g><g id="SvgjsG1502"><path id="SvgjsPath1503" d="M563 518L593.5 518L593.5 518L624 518" stroke="#323232" stroke-width="2" fill="none" marker-end="url(#SvgjsMarker1504)"></path></g><g id="SvgjsG1506"><path id="SvgjsPath1507" d="M563 393L593.5 393L593.5 393L624 393" stroke="#323232" stroke-width="2" fill="none" marker-end="url(#SvgjsMarker1508)"></path></g><g id="SvgjsG1510"><path id="SvgjsPath1511" d="M902 393L1097.5 393L1097.5 201" stroke="#323232" stroke-width="2" fill="none" marker-end="url(#SvgjsMarker1512)"></path></g><g id="SvgjsG1514"><path id="SvgjsPath1515" d="M1097.5 483L1097.5 342L1097.5 342L1097.5 201" stroke="#323232" stroke-width="2" fill="none" marker-end="url(#SvgjsMarker1516)"></path></g><g id="SvgjsG1518"><path id="SvgjsPath1519" d="M1142.5 518L1270 518L1270 206" stroke="#323232" stroke-width="2" fill="none" marker-end="url(#SvgjsMarker1520)"></path></g><g id="SvgjsG1522"><path id="SvgjsPath1523" d="M902 281L1270 281L1270 206" stroke="#323232" stroke-width="2" fill="none" marker-end="url(#SvgjsMarker1524)"></path></g><g id="SvgjsG1526"><path id="SvgjsPath1527" d="M125 333L147 333L147 333L169 333" stroke="#323232" stroke-width="2" fill="none"></path></g><g id="SvgjsG1528" transform="translate(995,156)"><path id="SvgjsPath1529" d="M 0 0L 29 0L 29 24L 0 24Z" stroke="none" fill="none"></path><g id="SvgjsG1530"><text id="SvgjsText1531" font-family="微软雅黑" text-anchor="middle" font-size="13px" width="29px" fill="#323232" font-weight="400" align="middle" anchor="middle" family="微软雅黑" size="13px" weight="400" font-style="" opacity="1" y="2.05" transform="rotate(0)"><tspan id="SvgjsTspan1532" dy="16" x="14.5"><tspan id="SvgjsTspan1533" style="text-decoration:;">Y</tspan></tspan></text></g></g><g id="SvgjsG1534" transform="translate(842.5,34)"><path id="SvgjsPath1535" d="M 0 0L 29 0L 29 24L 0 24Z" stroke="none" fill="none"></path><g id="SvgjsG1536"><text id="SvgjsText1537" font-family="微软雅黑" text-anchor="middle" font-size="13px" width="29px" fill="#323232" font-weight="400" align="middle" anchor="middle" family="微软雅黑" size="13px" weight="400" font-style="" opacity="1" y="2.05" transform="rotate(0)"><tspan id="SvgjsTspan1538" dy="16" x="14.5"><tspan id="SvgjsTspan1539" style="text-decoration:;">Y</tspan></tspan></text></g></g><g id="SvgjsG1540" transform="translate(947,117)"><path id="SvgjsPath1541" d="M 0 0L 29 0L 29 24L 0 24Z" stroke="none" fill="none"></path><g id="SvgjsG1542"><text id="SvgjsText1543" font-family="微软雅黑" text-anchor="middle" font-size="13px" width="29px" fill="#323232" font-weight="400" align="middle" anchor="middle" family="微软雅黑" size="13px" weight="400" font-style="" opacity="1" y="2.05" transform="rotate(0)"><tspan id="SvgjsTspan1544" dy="16" x="14.5"><tspan id="SvgjsTspan1545" style="text-decoration:;">N</tspan></tspan></text></g></g><g id="SvgjsG1546" transform="translate(1024,34)"><path id="SvgjsPath1547" d="M 0 0L 29 0L 29 24L 0 24Z" stroke="none" fill="none"></path><g id="SvgjsG1548"><text id="SvgjsText1549" font-family="微软雅黑" text-anchor="middle" font-size="13px" width="29px" fill="#323232" font-weight="400" align="middle" anchor="middle" family="微软雅黑" size="13px" weight="400" font-style="" opacity="1" y="2.05" transform="rotate(0)"><tspan id="SvgjsTspan1550" dy="16" x="14.5"><tspan id="SvgjsTspan1551" style="text-decoration:;">N</tspan></tspan></text></g></g><g id="SvgjsG1552" transform="translate(858,329)"><path id="SvgjsPath1553" d="M 0 0L 29 0L 29 24L 0 24Z" stroke="none" fill="none"></path><g id="SvgjsG1554"><text id="SvgjsText1555" font-family="微软雅黑" text-anchor="middle" font-size="13px" width="29px" fill="#323232" font-weight="400" align="middle" anchor="middle" family="微软雅黑" size="13px" weight="400" font-style="" opacity="1" y="2.05" transform="rotate(0)"><tspan id="SvgjsTspan1556" dy="16" x="14.5"><tspan id="SvgjsTspan1557" style="text-decoration:;">N</tspan></tspan></text></g></g><g id="SvgjsG1558" transform="translate(924,257)"><path id="SvgjsPath1559" d="M 0 0L 29 0L 29 24L 0 24Z" stroke="none" fill="none"></path><g id="SvgjsG1560"><text id="SvgjsText1561" font-family="微软雅黑" text-anchor="middle" font-size="13px" width="29px" fill="#323232" font-weight="400" align="middle" anchor="middle" family="微软雅黑" size="13px" weight="400" font-style="" opacity="1" y="2.05" transform="rotate(0)"><tspan id="SvgjsTspan1562" dy="16" x="14.5"><tspan id="SvgjsTspan1563" style="text-decoration:;">N</tspan></tspan></text></g></g><g id="SvgjsG1564" transform="translate(1168,492)"><path id="SvgjsPath1565" d="M 0 0L 29 0L 29 24L 0 24Z" stroke="none" fill="none"></path><g id="SvgjsG1566"><text id="SvgjsText1567" font-family="微软雅黑" text-anchor="middle" font-size="13px" width="29px" fill="#323232" font-weight="400" align="middle" anchor="middle" family="微软雅黑" size="13px" weight="400" font-style="" opacity="1" y="2.05" transform="rotate(0)"><tspan id="SvgjsTspan1568" dy="16" x="14.5"><tspan id="SvgjsTspan1569" style="text-decoration:;">N</tspan></tspan></text></g></g><g id="SvgjsG1570" transform="translate(764,257)"><path id="SvgjsPath1571" d="M 0 0L 29 0L 29 24L 0 24Z" stroke="none" fill="none"></path><g id="SvgjsG1572"><text id="SvgjsText1573" font-family="微软雅黑" text-anchor="middle" font-size="13px" width="29px" fill="#323232" font-weight="400" align="middle" anchor="middle" family="微软雅黑" size="13px" weight="400" font-style="" opacity="1" y="2.05" transform="rotate(0)"><tspan id="SvgjsTspan1574" dy="16" x="14.5"><tspan id="SvgjsTspan1575" style="text-decoration:;">Y</tspan></tspan></text></g></g><g id="SvgjsG1576" transform="translate(930,369)"><path id="SvgjsPath1577" d="M 0 0L 29 0L 29 24L 0 24Z" stroke="none" fill="none"></path><g id="SvgjsG1578"><text id="SvgjsText1579" font-family="微软雅黑" text-anchor="middle" font-size="13px" width="29px" fill="#323232" font-weight="400" align="middle" anchor="middle" family="微软雅黑" size="13px" weight="400" font-style="" opacity="1" y="2.05" transform="rotate(0)"><tspan id="SvgjsTspan1580" dy="16" x="14.5"><tspan id="SvgjsTspan1581" style="text-decoration:;">Y</tspan></tspan></text></g></g><g id="SvgjsG1582" transform="translate(1098,432)"><path id="SvgjsPath1583" d="M 0 0L 29 0L 29 24L 0 24Z" stroke="none" fill="none"></path><g id="SvgjsG1584"><text id="SvgjsText1585" font-family="微软雅黑" text-anchor="middle" font-size="13px" width="29px" fill="#323232" font-weight="400" align="middle" anchor="middle" family="微软雅黑" size="13px" weight="400" font-style="" opacity="1" y="2.05" transform="rotate(0)"><tspan id="SvgjsTspan1586" dy="16" x="14.5"><tspan id="SvgjsTspan1587" style="text-decoration:;">Y</tspan></tspan></text></g></g></svg>